# xmcd CD database file generated by Grip 2.96
# 
# Track frame offsets:
#       182
#       18757
#       34925
#       50990
#       63697
#       79132
#       94807
#       106592
#       145372
#       161057
#       182115
# 
# Disc length: 2494 seconds
# 
# Revision: 0
# Processed by: cddbd v1.4PL0 Copyright (c) Steve Scherf et al.
# Submitted via: Grip 2.96
# 
DISCID=9609bc0b
DTITLE=Highttailers - La La King
DYEAR=1900
DGENRE=
TTITLE0=La La King
TTITLE1=Man Smart, Woman Smarter
TTITLE2=Much too Much
TTITLE3=Moonligh on the Water
TTITLE4=Too tall to mambo
TTITLE5=Love Song
TTITLE6=Darlin' Girl
TTITLE7=Jungle Time
TTITLE8=Thorugh with You
TTITLE9=Mellow Down Easy
TTITLE10=Break Song
EXTD=
EXTT0=
EXTT1=
EXTT2=
EXTT3=
EXTT4=
EXTT5=
EXTT6=
EXTT7=
EXTT8=
EXTT9=
EXTT10=
PLAYORDER=
